<svg id="Layer_1" data-name="Layer 1" xmlns="http://www.w3.org/2000/svg" viewBox="0 0 69.19 105.08"><defs><style>.cls-1{fill:#ff0025;opacity:0.55;}.cls-1,.cls-5,.cls-6{isolation:isolate;}.cls-2{fill:#6c92dd;}.cls-3{fill:#85c9e8;}.cls-4{fill:#4dae76;}.cls-5{fill:#dd8381;opacity:0.31;}.cls-6{font-size:36px;fill:#e27484;font-family:ComicSansMS, Comic Sans MS;}</style></defs><polygon class="cls-1" points="28.43 0 51.37 11.73 51.37 31.47 36.56 42.13 36.56 66.67 28.43 66.67 28.43 0"/><polygon class="cls-2" points="51.37 31.47 36.56 42.13 36.56 66.67 51.37 66.67 51.37 31.47"/><polygon class="cls-3" points="54.84 33.33 66.03 38.65 66.03 68 53.51 68 54.84 33.33"/><polygon class="cls-4" points="21.77 21.07 7.11 28 7.11 68 21.77 68 21.77 21.07"/><polygon class="cls-5" points="17.23 8.8 19.36 18.93 24.96 17.07 24.96 66.67 36.44 68 36.56 42.13 41.4 38.65 41.4 21.07 17.23 8.8"/><text class="cls-6" transform="translate(0.01 93.85)">yobi</text></svg>